<svg width="46" height="46" viewBox="0 0 46 46" fill="none" xmlns="http://www.w3.org/2000/svg">
<path d="M1.33594 13.1405C1.33594 6.51312 6.70852 1.14053 13.3359 1.14053H32.3359C38.9634 1.14053 44.3359 6.51312 44.3359 13.1405V32.1405C44.3359 38.7679 38.9634 44.1405 32.3359 44.1405H13.3359C6.70852 44.1405 1.33594 38.7679 1.33594 32.1405V13.1405Z" fill="black"/>
<path d="M25.6406 0.0545959C26.9108 -0.0586474 28.1721 0.00453579 29.4141 0.242096L31.1328 0.570221L32.8594 0.898346C34.092 1.13414 35.2453 1.51415 36.3047 2.03897L37.7578 2.76553L39.2188 3.48428C40.323 4.03132 41.3017 4.81405 42.1562 5.81241L44.4844 8.53116C45.442 9.64999 45.8442 10.98 45.6875 12.453L45.5 14.2655L45.3047 16.0702C45.1773 17.2651 45.0688 18.4474 44.9766 19.6171L44.8359 21.3905L44.6953 23.1562C44.6103 24.2348 44.6877 25.3212 44.9297 26.4062L45.3281 28.1718L45.7188 29.9452C46.0252 31.3208 45.9211 32.6762 45.3984 33.9843L44.7266 35.664L44.0547 37.3515C43.5436 38.6296 42.7546 39.6898 41.6953 40.5077L38.9609 42.6171C37.9061 43.4315 36.7106 43.9221 35.3906 44.0702L33.6797 44.2577L31.9766 44.4452C30.8535 44.5709 29.7055 44.7247 28.5391 44.9062L26.7734 45.1874L25 45.4608C23.7616 45.6535 22.5217 45.7306 21.2812 45.6952L19.5078 45.6483L17.7344 45.5937C16.4976 45.5579 15.2762 45.4128 14.0703 45.164L12.3438 44.8124L10.625 44.453C9.31245 44.1822 8.15458 43.6167 7.17969 42.7499L4.66406 40.5155C3.72876 39.6836 2.96879 38.6852 2.39062 37.539L1.60938 35.9843L0.820312 34.4296C0.219049 33.2374 -0.0482521 31.9573 0.0078125 30.6093L0.078125 28.8358L0.15625 27.0624C0.207172 25.8455 0.320367 24.6283 0.5 23.414L0.765625 21.6483L1.02344 19.8749C1.18665 18.7715 1.22048 17.6731 1.125 16.578L0.96875 14.8124L0.820312 13.0546C0.703166 11.712 0.914916 10.4239 1.46875 9.21085L2.19531 7.63272L2.91406 6.0546C3.47689 4.82237 4.35234 3.82193 5.50781 3.07803L7 2.1171L8.5 1.14835C9.02427 0.810852 9.50991 0.545258 9.94531 0.359283C10.3644 0.180662 10.8303 0.0363455 11.2812 0.0545959L11.9766 0.0858459L12.6797 0.109283C13.1536 0.128485 13.9859 0.178063 15.1641 0.242096L16.9297 0.335846L18.7031 0.429596C19.8331 0.490876 20.9634 0.475821 22.0938 0.374908L23.8672 0.210846L25.6406 0.0545959ZM25.8125 2.04678L24.0469 2.20303L22.2734 2.35928C21.047 2.46889 19.8205 2.49617 18.5938 2.4296L16.8203 2.32803L15.0547 2.23428C13.8744 2.17013 13.0519 2.12782 12.5938 2.10928L11.8984 2.08585L11.1953 2.0546C11.1839 2.05504 11.1468 2.06122 11.0781 2.07803C10.994 2.09866 10.8801 2.13318 10.7344 2.19522C10.4387 2.32123 10.0586 2.53158 9.58594 2.83585L8.08594 3.79678L6.58594 4.76553C5.74468 5.30767 5.13351 6.00888 4.73438 6.88272L4.01562 8.46085L3.28906 10.039C2.88102 10.9323 2.72479 11.8775 2.8125 12.8827L2.96094 14.6405L3.11719 16.4062C3.2261 17.6569 3.18527 18.9098 3 20.164L2.74219 21.9374L2.47656 23.7108C2.30737 24.8554 2.20417 26.0031 2.15625 27.1483L2.07812 28.9218L2.00781 30.6874C1.96537 31.7017 2.164 32.6482 2.60938 33.5312L3.39844 35.0858L4.17969 36.6405C4.64869 37.5703 5.252 38.365 5.99219 39.0233L8.50781 41.2577C9.20752 41.8796 10.0387 42.2965 11.0234 42.4999L12.75 42.8515L14.4766 43.2108C15.5679 43.4359 16.6757 43.5615 17.7969 43.5937L19.5625 43.6483L21.3359 43.6952C22.454 43.7273 23.5752 43.6585 24.6953 43.4843L26.4609 43.2108L28.2344 42.9296C29.4265 42.7442 30.5987 42.5897 31.75 42.4608L33.4609 42.2733L35.1641 42.078C36.1188 41.9712 36.9749 41.6236 37.7422 41.0312L40.4766 38.9218C41.2373 38.3336 41.8106 37.5708 42.1953 36.6093L42.8672 34.9218L43.5391 33.2421C43.9124 32.3078 43.9851 31.3586 43.7656 30.3749L43.375 28.6093L42.9766 26.8358C42.6926 25.5617 42.6022 24.2804 42.7031 22.9999L42.8438 21.2343L42.9844 19.4608C43.0781 18.2724 43.191 17.072 43.3203 15.8593L43.5078 14.0468L43.7031 12.2421C43.8025 11.3082 43.5602 10.5286 42.9688 9.83585L41.8047 8.46866L40.6406 7.10928C39.9438 6.29525 39.1677 5.68925 38.3281 5.27335L36.875 4.5546L35.4141 3.82803C34.5299 3.39034 33.5524 3.0714 32.4844 2.8671L30.7578 2.53116L29.0312 2.20303C27.9737 2.00106 26.8999 1.94955 25.8125 2.04678Z" fill="black"/>
<path d="M7.53594 13.9739H38.1359C38.5868 13.9739 39.0192 13.7456 39.338 13.3393C39.6568 12.9329 39.8359 12.3818 39.8359 11.8072C39.8359 11.2326 39.6568 10.6815 39.338 10.2751C39.0192 9.86881 38.5868 9.64053 38.1359 9.64053H7.53594C7.08507 9.64053 6.65267 9.86881 6.33386 10.2751C6.01504 10.6815 5.83594 11.2326 5.83594 11.8072C5.83594 12.3818 6.01504 12.9329 6.33386 13.3393C6.65267 13.7456 7.08507 13.9739 7.53594 13.9739ZM38.1359 31.3072H7.53594C7.08507 31.3072 6.65267 31.5355 6.33386 31.9418C6.01504 32.3481 5.83594 32.8992 5.83594 33.4739C5.83594 34.0485 6.01504 34.5996 6.33386 35.0059C6.65267 35.4123 7.08507 35.6405 7.53594 35.6405H38.1359C38.5868 35.6405 39.0192 35.4123 39.338 35.0059C39.6568 34.5996 39.8359 34.0485 39.8359 33.4739C39.8359 32.8992 39.6568 32.3481 39.338 31.9418C39.0192 31.5355 38.5868 31.3072 38.1359 31.3072ZM38.1359 20.4739H7.53594C7.08507 20.4739 6.65267 20.7021 6.33386 21.1085C6.01504 21.5148 5.83594 22.0659 5.83594 22.6405C5.83594 23.2152 6.01504 23.7663 6.33386 24.1726C6.65267 24.5789 7.08507 24.8072 7.53594 24.8072H38.1359C38.5868 24.8072 39.0192 24.5789 39.338 24.1726C39.6568 23.7663 39.8359 23.2152 39.8359 22.6405C39.8359 22.0659 39.6568 21.5148 39.338 21.1085C39.0192 20.7021 38.5868 20.4739 38.1359 20.4739Z" fill="#B1FD03"/>
</svg>
